<mxfile host="app.diagrams.net" modified="2023-08-06T01:57:49.178Z" agent="Mozilla/5.0 (Windows NT 10.0; Win64; x64) AppleWebKit/537.36 (KHTML, like Gecko) Chrome/115.0.0.0 Safari/537.36" etag="N14xrON6yF8iiFll6DvF" version="21.6.5" type="device">
  <diagram name="Page-1" id="1qUIvKNOX8t54b5tFXDH">
    <mxGraphModel dx="1914" dy="991" grid="1" gridSize="10" guides="1" tooltips="1" connect="1" arrows="1" fold="1" page="1" pageScale="1" pageWidth="850" pageHeight="1100" math="0" shadow="0">
      <root>
        <mxCell id="0" />
        <mxCell id="1" parent="0" />
        <mxCell id="sHFwmyitdx2s0PxhrnXJ-1" value="3dObject" style="swimlane;fontStyle=1;align=center;verticalAlign=top;childLayout=stackLayout;horizontal=1;startSize=26;horizontalStack=0;resizeParent=1;resizeParentMax=0;resizeLast=0;collapsible=1;marginBottom=0;whiteSpace=wrap;html=1;" parent="1" vertex="1">
          <mxGeometry x="279" y="300" width="210" height="150" as="geometry" />
        </mxCell>
        <mxCell id="sHFwmyitdx2s0PxhrnXJ-2" value="- center: Coordinate&lt;br&gt;- points: Vector&amp;lt;Point&amp;gt;" style="text;strokeColor=none;fillColor=none;align=left;verticalAlign=top;spacingLeft=4;spacingRight=4;overflow=hidden;rotatable=0;points=[[0,0.5],[1,0.5]];portConstraint=eastwest;whiteSpace=wrap;html=1;" parent="sHFwmyitdx2s0PxhrnXJ-1" vertex="1">
          <mxGeometry y="26" width="210" height="44" as="geometry" />
        </mxCell>
        <mxCell id="sHFwmyitdx2s0PxhrnXJ-3" value="" style="line;strokeWidth=1;fillColor=none;align=left;verticalAlign=middle;spacingTop=-1;spacingLeft=3;spacingRight=3;rotatable=0;labelPosition=right;points=[];portConstraint=eastwest;strokeColor=inherit;" parent="sHFwmyitdx2s0PxhrnXJ-1" vertex="1">
          <mxGeometry y="70" width="210" height="8" as="geometry" />
        </mxCell>
        <mxCell id="sHFwmyitdx2s0PxhrnXJ-4" value="+ constructor(center, points)&lt;br&gt;+ extrude(Face, Length)&lt;br&gt;+ getFaces(): Vector&amp;lt;Face&amp;amp;&amp;gt;&lt;br&gt;+ getPoints(): Vector&amp;lt;Point&amp;amp;&amp;gt;" style="text;strokeColor=none;fillColor=none;align=left;verticalAlign=top;spacingLeft=4;spacingRight=4;overflow=hidden;rotatable=0;points=[[0,0.5],[1,0.5]];portConstraint=eastwest;whiteSpace=wrap;html=1;" parent="sHFwmyitdx2s0PxhrnXJ-1" vertex="1">
          <mxGeometry y="78" width="210" height="72" as="geometry" />
        </mxCell>
        <mxCell id="sHFwmyitdx2s0PxhrnXJ-6" value="Coordinate" style="swimlane;fontStyle=0;childLayout=stackLayout;horizontal=1;startSize=26;fillColor=none;horizontalStack=0;resizeParent=1;resizeParentMax=0;resizeLast=0;collapsible=1;marginBottom=0;whiteSpace=wrap;html=1;" parent="1" vertex="1">
          <mxGeometry x="20" y="60" width="150" height="164" as="geometry" />
        </mxCell>
        <mxCell id="sHFwmyitdx2s0PxhrnXJ-7" value="+ x: double" style="text;strokeColor=none;fillColor=none;align=left;verticalAlign=top;spacingLeft=4;spacingRight=4;overflow=hidden;rotatable=0;points=[[0,0.5],[1,0.5]];portConstraint=eastwest;whiteSpace=wrap;html=1;" parent="sHFwmyitdx2s0PxhrnXJ-6" vertex="1">
          <mxGeometry y="26" width="150" height="26" as="geometry" />
        </mxCell>
        <mxCell id="sHFwmyitdx2s0PxhrnXJ-8" value="+ y: double" style="text;strokeColor=none;fillColor=none;align=left;verticalAlign=top;spacingLeft=4;spacingRight=4;overflow=hidden;rotatable=0;points=[[0,0.5],[1,0.5]];portConstraint=eastwest;whiteSpace=wrap;html=1;" parent="sHFwmyitdx2s0PxhrnXJ-6" vertex="1">
          <mxGeometry y="52" width="150" height="26" as="geometry" />
        </mxCell>
        <mxCell id="sHFwmyitdx2s0PxhrnXJ-9" value="+ z: double" style="text;strokeColor=none;fillColor=none;align=left;verticalAlign=top;spacingLeft=4;spacingRight=4;overflow=hidden;rotatable=0;points=[[0,0.5],[1,0.5]];portConstraint=eastwest;whiteSpace=wrap;html=1;" parent="sHFwmyitdx2s0PxhrnXJ-6" vertex="1">
          <mxGeometry y="78" width="150" height="26" as="geometry" />
        </mxCell>
        <mxCell id="sHFwmyitdx2s0PxhrnXJ-19" value="" style="swimlane;startSize=0;" parent="sHFwmyitdx2s0PxhrnXJ-6" vertex="1">
          <mxGeometry y="104" width="150" height="60" as="geometry" />
        </mxCell>
        <mxCell id="sHFwmyitdx2s0PxhrnXJ-14" value="Marks a single point in 3d space" style="text;html=1;strokeColor=none;fillColor=none;align=center;verticalAlign=middle;whiteSpace=wrap;rounded=0;" parent="sHFwmyitdx2s0PxhrnXJ-19" vertex="1">
          <mxGeometry x="5" y="-2" width="140" height="60" as="geometry" />
        </mxCell>
        <mxCell id="sHFwmyitdx2s0PxhrnXJ-10" value="Point" style="swimlane;fontStyle=0;childLayout=stackLayout;horizontal=1;startSize=26;fillColor=none;horizontalStack=0;resizeParent=1;resizeParentMax=0;resizeLast=0;collapsible=1;marginBottom=0;whiteSpace=wrap;html=1;" parent="1" vertex="1">
          <mxGeometry x="170" y="60" width="140" height="165" as="geometry" />
        </mxCell>
        <mxCell id="sHFwmyitdx2s0PxhrnXJ-11" value="+ relativeX: double" style="text;strokeColor=none;fillColor=none;align=left;verticalAlign=top;spacingLeft=4;spacingRight=4;overflow=hidden;rotatable=0;points=[[0,0.5],[1,0.5]];portConstraint=eastwest;whiteSpace=wrap;html=1;" parent="sHFwmyitdx2s0PxhrnXJ-10" vertex="1">
          <mxGeometry y="26" width="140" height="26" as="geometry" />
        </mxCell>
        <mxCell id="sHFwmyitdx2s0PxhrnXJ-12" value="+ relativeY: double" style="text;strokeColor=none;fillColor=none;align=left;verticalAlign=top;spacingLeft=4;spacingRight=4;overflow=hidden;rotatable=0;points=[[0,0.5],[1,0.5]];portConstraint=eastwest;whiteSpace=wrap;html=1;" parent="sHFwmyitdx2s0PxhrnXJ-10" vertex="1">
          <mxGeometry y="52" width="140" height="26" as="geometry" />
        </mxCell>
        <mxCell id="sHFwmyitdx2s0PxhrnXJ-13" value="+ relativeZ: double" style="text;strokeColor=none;fillColor=none;align=left;verticalAlign=top;spacingLeft=4;spacingRight=4;overflow=hidden;rotatable=0;points=[[0,0.5],[1,0.5]];portConstraint=eastwest;whiteSpace=wrap;html=1;" parent="sHFwmyitdx2s0PxhrnXJ-10" vertex="1">
          <mxGeometry y="78" width="140" height="26" as="geometry" />
        </mxCell>
        <mxCell id="sHFwmyitdx2s0PxhrnXJ-18" value="" style="swimlane;startSize=0;" parent="sHFwmyitdx2s0PxhrnXJ-10" vertex="1">
          <mxGeometry y="104" width="140" height="61" as="geometry" />
        </mxCell>
        <mxCell id="sHFwmyitdx2s0PxhrnXJ-17" value="Marks a point of a shape&lt;br&gt;it is by *relative* coordinates" style="text;html=1;strokeColor=none;fillColor=none;align=center;verticalAlign=middle;whiteSpace=wrap;rounded=0;" parent="sHFwmyitdx2s0PxhrnXJ-18" vertex="1">
          <mxGeometry y="-5" width="140" height="66" as="geometry" />
        </mxCell>
        <mxCell id="sHFwmyitdx2s0PxhrnXJ-21" value="Face" style="swimlane;fontStyle=0;childLayout=stackLayout;horizontal=1;startSize=26;fillColor=none;horizontalStack=0;resizeParent=1;resizeParentMax=0;resizeLast=0;collapsible=1;marginBottom=0;whiteSpace=wrap;html=1;" parent="1" vertex="1">
          <mxGeometry x="310" y="60" width="140" height="122" as="geometry" />
        </mxCell>
        <mxCell id="sHFwmyitdx2s0PxhrnXJ-22" value="points: Point&amp;amp;[4]" style="text;strokeColor=none;fillColor=none;align=left;verticalAlign=top;spacingLeft=4;spacingRight=4;overflow=hidden;rotatable=0;points=[[0,0.5],[1,0.5]];portConstraint=eastwest;whiteSpace=wrap;html=1;" parent="sHFwmyitdx2s0PxhrnXJ-21" vertex="1">
          <mxGeometry y="26" width="140" height="26" as="geometry" />
        </mxCell>
        <mxCell id="sHFwmyitdx2s0PxhrnXJ-28" value="" style="swimlane;startSize=0;" parent="sHFwmyitdx2s0PxhrnXJ-21" vertex="1">
          <mxGeometry y="52" width="140" height="70" as="geometry" />
        </mxCell>
        <mxCell id="sHFwmyitdx2s0PxhrnXJ-26" value="four Connected points will be a face" style="text;html=1;strokeColor=none;fillColor=none;align=center;verticalAlign=middle;whiteSpace=wrap;rounded=0;" parent="sHFwmyitdx2s0PxhrnXJ-28" vertex="1">
          <mxGeometry y="10" width="140" height="50" as="geometry" />
        </mxCell>
        <mxCell id="sHFwmyitdx2s0PxhrnXJ-31" style="edgeStyle=orthogonalEdgeStyle;rounded=0;orthogonalLoop=1;jettySize=auto;html=1;exitX=1;exitY=0.75;exitDx=0;exitDy=0;" parent="1" source="sHFwmyitdx2s0PxhrnXJ-30" target="sHFwmyitdx2s0PxhrnXJ-1" edge="1">
          <mxGeometry relative="1" as="geometry" />
        </mxCell>
        <mxCell id="sHFwmyitdx2s0PxhrnXJ-30" value="&lt;p style=&quot;margin:0px;margin-top:4px;text-align:center;&quot;&gt;&lt;i&gt;&amp;lt;&amp;lt;Interface&amp;gt;&amp;gt;&lt;/i&gt;&lt;br&gt;&lt;b&gt;3dObjectCreator&lt;/b&gt;&lt;/p&gt;&lt;hr size=&quot;1&quot;&gt;&lt;p style=&quot;margin:0px;margin-left:4px;&quot;&gt;+ ImageToDisplay: Image&lt;br&gt;&lt;/p&gt;&lt;hr size=&quot;1&quot;&gt;&lt;p style=&quot;margin:0px;margin-left:4px;&quot;&gt;+ create(center, points): 3dObject&lt;br&gt;&lt;/p&gt;" style="verticalAlign=top;align=left;overflow=fill;fontSize=12;fontFamily=Helvetica;html=1;whiteSpace=wrap;" parent="1" vertex="1">
          <mxGeometry x="145" y="550" width="190" height="100" as="geometry" />
        </mxCell>
        <UserObject label="Math :(" linkTarget="_blank" link="data:page/id,1qUIvKNOX8t54b5tFXDH" id="sHFwmyitdx2s0PxhrnXJ-32">
          <mxCell style="fontColor=#0000EE;fontStyle=4;rounded=1;overflow=hidden;spacing=10;" parent="1" vertex="1">
            <mxGeometry x="450" y="60" width="80" height="40" as="geometry" />
          </mxCell>
        </UserObject>
      </root>
    </mxGraphModel>
  </diagram>
</mxfile>
